<?xml version="1.0" encoding="UTF-8" standalone="no"?>
<svg
   width="24"
   height="24"
   viewBox="0 0 24 24"
   fill="none"
   version="1.1"
   id="svg13"
   sodipodi:docname="test.svg"
   inkscape:version="1.2 (dc2aedaf03, 2022-05-15)"
   xml:space="preserve"
   xmlns:inkscape="http://www.inkscape.org/namespaces/inkscape"
   xmlns:sodipodi="http://sodipodi.sourceforge.net/DTD/sodipodi-0.dtd"
   xmlns="http://www.w3.org/2000/svg"
   xmlns:svg="http://www.w3.org/2000/svg"><sodipodi:namedview
     id="namedview15"
     pagecolor="#ffffff"
     bordercolor="#000000"
     borderopacity="0.25"
     inkscape:showpageshadow="2"
     inkscape:pageopacity="0.0"
     inkscape:pagecheckerboard="0"
     inkscape:deskcolor="#d1d1d1"
     showgrid="true"
     inkscape:zoom="16.000001"
     inkscape:cx="9.0312494"
     inkscape:cy="12.874999"
     inkscape:window-width="1920"
     inkscape:window-height="1057"
     inkscape:window-x="-8"
     inkscape:window-y="-8"
     inkscape:window-maximized="1"
     inkscape:current-layer="svg13"><inkscape:grid
       type="xygrid"
       id="grid915" /></sodipodi:namedview><defs
     id="defs11"><rect
   x="11.932427"
   y="6.805903"
   width="21.743532"
   height="9.280776"
   id="rect1261" /><clipPath
   id="clip0_50_327"><rect
     width="64"
     height="64"
     fill="#ffffff"
     id="rect8"
     x="0"
     y="0" /></clipPath>
	
	
</defs><rect
     style="fill:#0033c4;fill-opacity:1;stroke-width:0;paint-order:fill markers stroke"
     id="rect3758"
     width="24"
     height="24"
     x="0"
     y="0"
     ry="3" /><g
     id="g3764"
     transform="translate(0.76540804,-0.72169943)"><path
       style="fill:#ffffff;fill-opacity:1;stroke-width:0;paint-order:fill markers stroke"
       d="M 11.114834,21.767346 C 9.7730389,21.644081 8.4226842,21.196369 7.6468794,20.617542 7.515857,20.519786 7.3931457,20.439804 7.3741872,20.439804 c -0.018958,0 -0.2796784,-0.267394 -0.5793771,-0.594208 C 6.2082301,19.205945 5.979763,18.856945 5.6952271,18.165902 5.311986,17.235138 5.2064316,16.552997 4.9734308,13.501319 4.6763375,9.6102041 4.5217161,8.2838306 4.2135234,6.982679 4.0456346,6.2738729 3.8699002,5.8018374 3.5901873,5.3083516 3.1398581,4.5138547 2.5130664,4.0416554 1.6683101,3.8604876 1.0408771,3.7259273 2.07128,3.6291985 3.8170084,3.6587792 c 1.4023139,0.023762 1.6958882,0.051813 2.7006887,0.2580514 0.5833295,0.1197304 1.3627569,0.3885225 1.7836914,0.6151209 0.8060084,0.4338921 1.1502607,0.7795124 1.5109213,1.516926 0.6649412,1.3595505 0.8756942,2.482303 1.1251462,5.9940345 0.214858,3.024736 0.490106,4.862774 0.802251,5.357244 0.05948,0.09423 0.125273,0.215104 0.146197,0.268613 0.07641,0.195401 0.643484,0.790662 0.973547,1.021943 0.456643,0.319979 0.866918,0.520632 1.394669,0.682092 0.822573,0.251658 1.340264,0.322305 2.95951,0.403872 1.099986,0.05541 1.482264,0.108795 1.634059,0.228197 0.152767,0.120167 0.14034,0.193907 -0.05412,0.321149 -0.726601,0.475447 -3.245936,1.174232 -4.95572,1.374562 -0.680396,0.07972 -2.181371,0.116521 -2.723017,0.06676 z"
       id="path2247" /><path
       style="fill:#ffffff;fill-opacity:1;stroke-width:0;paint-order:fill markers stroke"
       d="m 16.418135,18.622541 c -0.93507,-0.214852 -1.893038,-0.775704 -2.389759,-1.399108 -0.527533,-0.662075 -0.668408,-1.090405 -0.85353,-2.595162 -0.177821,-1.445419 -0.203573,-1.711765 -0.337563,-3.49134 C 12.773885,10.294912 12.675561,9.3428957 12.613629,8.9714167 12.305712,7.1244796 12.125865,6.7152854 11.20952,5.776732 10.74896,5.3050093 10.532978,5.1376189 9.8108123,4.6927051 9.6602489,4.5999456 9.5485395,4.5125726 9.5625692,4.4985429 c 0.041869,-0.041869 1.9638258,-0.014362 2.3698568,0.033918 0.896974,0.106656 1.53955,0.3925536 2.080174,0.9255195 0.184921,0.182301 0.36699,0.3911184 0.4046,0.4640388 0.03761,0.07292 0.140138,0.2618505 0.227843,0.4198446 0.440021,0.7926713 0.685066,2.047216 0.975449,4.9939412 0.06108,0.619823 0.130845,1.276107 0.155034,1.458408 0.02419,0.1823 0.07517,0.599935 0.113296,0.928077 0.174064,1.498228 0.492671,2.706446 0.961454,3.646019 0.202708,0.406284 0.456633,0.791829 0.623596,0.94683 0.15476,0.143674 0.145373,0.216306 -0.03785,0.292862 -0.171378,0.07161 -0.734512,0.07965 -1.017885,0.01454 z"
       id="path2249" /><path
       style="fill:#ffffff;fill-opacity:1;stroke-width:0;paint-order:fill markers stroke"
       d="M 19.748783,18.964704 C 19.53626,18.802431 19.097595,18.177139 18.768372,17.567183 18.224077,16.558759 17.841211,14.958205 17.436351,11.998717 17.348233,11.354587 17.215846,10.39005 17.142157,9.8553001 16.790858,7.3059752 16.43166,6.3136366 15.609578,5.621322 15.377888,5.4262046 14.798507,5.1044268 14.678876,5.1044268 c -0.02783,0 -0.05061,-0.017402 -0.05061,-0.03867 0,-0.066975 0.256292,-0.093913 0.893514,-0.093913 0.722426,0 1.245986,0.091188 1.915927,0.3336972 0.776352,0.281028 0.994158,0.4222793 1.634416,1.0599516 0.850213,0.8467771 1.193928,1.3719909 1.503696,2.2977217 0.321993,0.9622607 0.439089,1.8388777 0.404182,3.0258407 -0.01725,0.586725 -0.05574,0.999016 -0.136168,1.458711 -0.606437,3.466204 -0.674703,3.943246 -0.727619,5.08457 -0.03424,0.738439 -0.05644,0.881643 -0.136706,0.881643 -0.01938,0 -0.123206,-0.06717 -0.23073,-0.149275 z"
       id="path2251" /></g></svg>
